<svg xmlns="http://www.w3.org/2000/svg" fill="none" viewBox="0 0 24 24" id="menufries"><path fill="url(#paint0_linear_1_11499)" d="M5 5.25C4.58579 5.25 4.25 5.58579 4.25 6C4.25 6.41421 4.58579 6.75 5 6.75H19C19.4142 6.75 19.75 6.41421 19.75 6C19.75 5.58579 19.4142 5.25 19 5.25H5Z"></path><path fill="url(#paint1_linear_1_11499)" d="M5 11.25C4.58579 11.25 4.25 11.5858 4.25 12C4.25 12.4142 4.58579 12.75 5 12.75H11C11.4142 12.75 11.75 12.4142 11.75 12C11.75 11.5858 11.4142 11.25 11 11.25H5Z"></path><path fill="url(#paint2_linear_1_11499)" d="M5 17.25C4.58579 17.25 4.25 17.5858 4.25 18C4.25 18.4142 4.58579 18.75 5 18.75H19C19.4142 18.75 19.75 18.4142 19.75 18C19.75 17.5858 19.4142 17.25 19 17.25H5Z"></path><defs><linearGradient id="paint0_linear_1_11499" x1="12" x2="12" y1="5.25" y2="18.75" gradientUnits="userSpaceOnUse"><stop stop-color="#747474" class="stopColor834d9b svgShape"></stop><stop offset="1" stop-color="#ffffff" class="stopColord04ed6 svgShape"></stop></linearGradient><linearGradient id="paint1_linear_1_11499" x1="12" x2="12" y1="5.25" y2="18.75" gradientUnits="userSpaceOnUse"><stop stop-color="#747474" class="stopColor834d9b svgShape"></stop><stop offset="1" stop-color="#ffffff" class="stopColord04ed6 svgShape"></stop></linearGradient><linearGradient id="paint2_linear_1_11499" x1="12" x2="12" y1="5.25" y2="18.75" gradientUnits="userSpaceOnUse"><stop stop-color="#747474" class="stopColor834d9b svgShape"></stop><stop offset="1" stop-color="#ffffff" class="stopColord04ed6 svgShape"></stop></linearGradient></defs></svg>